<svg width="417" height="273" viewBox="0 0 417 273" fill="none" xmlns="http://www.w3.org/2000/svg">
<path d="M0 2.06963C0 2.06963 27.6321 -1.56582 36.4388 0.799816C44.0577 2.84481 52.8457 11.4989 53.7522 27.3651C54.6587 43.2329 53.7957 68.7569 53.7957 68.7569C53.7957 68.7569 52.0014 81.9717 63.7904 83.7856C75.5768 85.5995 76.948 103.767 71.9609 106.941C66.973 110.115 62.0114 126.904 74.6958 125.999C87.3802 125.093 82.3957 131.905 72.876 130.999C69.0222 130.999 57.0098 135.99 64.4896 150.724C71.9695 165.458 97.8107 157.528 92.5993 132.819C103.026 133.953 117.306 127.834 120.254 124.661C117.308 129.649 112.322 144.835 113.228 151.636C107.334 152.769 79.6778 151.863 91.6919 180.651C96.2271 189.265 117.76 186.318 114.361 173.397C113.454 160.93 122.585 159.49 118.441 169.089C119.801 174.302 120.255 183.37 135.669 177.024C147.683 172.49 157.656 173.624 163.096 187.452C168.536 201.28 184.178 194.026 198.458 194.479C212.739 194.931 236.315 197.197 237.447 211.933C256.036 212.385 343.419 211.933 343.419 211.933C343.419 211.933 387.459 212.825 396.782 214.18C410.401 216.158 413.169 227.783 414.335 231.586C418.807 246.167 415.508 273 415.508 273H0.340263L0 2.06963Z" fill="#FED7E1"/>
<path d="M385.92 263.954L388.685 248.018L404.621 245.254L388.685 242.49L385.92 226.553L383.155 242.49L367.219 245.254L383.155 248.018L385.92 263.954Z" fill="#E2C18C"/>
<path d="M191.77 250.728L192.732 244.855L198.605 243.894L192.732 242.932L191.77 237.059L190.808 242.932L184.935 243.894L190.808 244.855L191.77 250.728Z" fill="#E2C18C"/>
<path d="M160.148 200.032L154.506 202.282L149.451 198.91L149.849 204.972L145.08 208.736L150.968 210.231L153.075 215.93L156.317 210.793L162.387 210.551L158.503 205.88L160.148 200.032Z" fill="#E2C18C"/>
<path d="M43.8621 86.466L38.8213 88.0061L34.6938 84.728L34.6026 89.9983L30.209 92.9088L35.1918 94.6255L36.6041 99.7047L39.7756 95.4953L45.0407 95.723L42.0193 91.4045L43.8621 86.466Z" fill="#E2C18C"/>
<path d="M77.1845 168.07L61.0549 173.202L47.6814 162.825L47.5791 179.751L33.5771 189.263L49.6437 194.592L54.3622 210.846L64.3944 197.213L81.3129 197.75L71.447 183.995L77.1845 168.07Z" fill="#E2C18C"/>
</svg>
