<svg width="520" height="520" viewBox="0 0 520 520" fill="none" xmlns="http://www.w3.org/2000/svg">
<path d="M519.983 259.802C519.82 403.814 403.075 520.399 259.861 519.999C116.02 519.599 -0.428422 403.133 0.00118488 258.586C0.420314 116.112 117.454 -0.226 260.366 0.000329677C403.721 0.230851 520.144 116.734 519.983 259.802ZM483.087 231.422L483.014 231.479C483.852 230.972 484.76 230.567 485.495 229.947C505.701 212.859 511.018 185.752 498.587 162.379C494.11 153.972 487.903 147.022 479.441 142.316L479.516 142.368C477.967 141.341 476.509 140.136 474.855 139.317C459.364 131.638 443.484 130.725 427.117 136.397C397.319 146.744 382.123 180.486 394.582 209.359C396.34 213.433 399.291 216.994 401.688 220.791L401.629 220.72L409.123 228.503C410.086 229.481 411.049 230.459 412.011 231.437C412.938 232.173 413.811 232.992 414.801 233.631C430.79 243.982 447.887 246.325 466.091 240.66C472.326 238.713 478.252 236.027 483.087 231.422ZM453.386 401.308C454.031 400.564 454.741 399.866 455.316 399.07C470.987 377.387 482.657 353.728 490.326 328.092C500.512 293.862 502.629 259.1 497.241 223.84C497.09 222.853 496.803 221.889 496.581 220.906L495.389 220.93C495.179 222.43 494.68 223.958 494.806 225.431C495.558 234.296 496.914 243.133 497.218 252.01C498.327 284.543 493.065 316.032 481.046 346.364C474.049 364.024 465.102 380.599 454.012 396.006C452.673 397.867 451.992 399.395 453.446 401.356C451.286 400.669 449.978 401.62 448.605 403.313C443.825 409.2 438.825 414.907 433.984 420.745C433.506 421.321 433.565 422.34 433.355 423.153C434.248 422.943 435.451 423.052 435.981 422.501C439.02 419.274 442 415.98 444.798 412.545C447.778 408.9 450.533 405.065 453.386 401.308ZM393.964 68.6495C392.348 71.2858 390.82 73.9745 389.095 76.5458C387.48 78.9642 385.675 81.2569 384.33 83.0947L419.809 113.75C417.007 107.113 417.552 100.128 422.2 93.6442C423.271 92.15 422.586 91.339 421.546 90.419C417.911 87.2232 414.436 83.824 410.62 80.8629C405.171 76.6402 399.494 72.736 393.911 68.6977C392.941 67.8804 392.057 66.9227 390.988 66.2709C385.166 62.7209 379.462 58.9152 373.407 55.822C364.616 51.3352 355.571 47.3368 346.583 43.2586C345.659 42.8395 343.591 42.9003 343.32 43.4095C340.705 48.3615 338.358 53.4581 335.96 58.4562C336.482 58.8921 336.677 59.1562 336.933 59.2547C352.394 65.2084 367.091 72.65 380.88 81.8478C382.396 82.86 383.173 82.181 384.024 81.0096C386.472 77.6565 388.921 74.3035 391.453 71.0134C392.138 70.1164 393.117 69.4332 393.964 68.6495ZM89.5774 66.25C96.8514 63.7352 104.004 63.666 110.515 67.8049C113.394 69.6344 115.1 69.1 117.489 67.3376C132.575 56.2434 148.962 47.0373 166.284 39.9245C193.54 28.675 221.909 22.5194 251.391 21.4576C283.353 20.3679 314.32 25.3367 344.29 36.364C374.874 47.6008 402.042 64.3995 425.792 86.76C427.094 87.9818 428.066 88.0908 429.657 87.2336C435.944 83.8492 442.513 83.7046 449.203 85.9763C449.884 86.2089 450.573 86.4142 451.665 86.76C355.691 -20.537 190.845 -25.4848 89.5774 66.25ZM423.977 459.613C418.833 460.097 413.29 460.91 409.159 457.936C403.205 453.663 399.395 456.115 394.305 459.475C348.945 489.4 299.002 502.645 244.754 499.579C209.937 497.618 177.163 488.206 146.311 472.078C127.798 462.4 110.905 450.359 95.5438 436.198C94.0768 434.842 92.9808 434.717 91.1429 435.593C88.7664 436.722 86.1343 437.619 83.5357 437.898C79.9835 438.281 76.3602 437.994 72.4287 437.994C114.993 481.793 166.314 508.812 227.163 516.294C300.596 525.337 366.24 505.902 423.977 459.613ZM16.2676 345.775C15.1401 333.843 17.2861 322.572 22.5021 311.826C23.0386 310.722 22.9569 309.131 22.7117 307.844C18.3423 285.559 17.0262 263.113 18.9668 240.486C21.8448 206.877 31.4512 175.315 47.7861 145.799C56.5712 129.831 67.1996 114.949 79.4533 101.459C80.8323 99.9416 81.2577 98.8414 79.8725 96.9239C76.9993 92.917 76.0039 88.2731 76.6682 83.3797C76.9532 81.2841 77.6322 79.2262 78.3447 76.2546C62.4849 91.645 49.559 108.27 38.6365 126.433C15.1946 165.412 2.72761 207.687 1.56872 253.177C0.770282 284.916 5.50437 315.835 16.2676 345.775ZM506.942 182.747C506.667 183.269 506.508 183.424 506.523 183.566C507.491 195.493 504.731 206.524 498.721 216.828C498.14 217.824 498.01 219.32 498.205 220.494C501.734 241.697 502.537 262.983 500.403 284.384C497.558 312.947 489.775 340.091 477.056 365.814C466.672 386.888 453.198 406.292 437.079 423.383C435.864 424.674 435.845 425.54 436.66 427.17C438.148 430.123 439.552 433.275 440.112 436.496C440.613 439.377 439.927 442.466 439.743 445.87C472.976 413.4 496.185 375.186 508.744 330.729C522.686 281.399 521.88 232.127 506.942 182.747ZM118.466 262.057C118.466 264.531 118.422 267.006 118.483 269.479C118.518 270.86 118.743 272.235 118.858 273.616C121.163 301.17 130.956 325.861 148.616 347.008C180.516 385.222 221.829 402.463 271.366 399.508C304.534 397.53 333.881 385.329 358.193 362.706C395.755 327.757 410.651 284.472 400.179 234.113C390.86 189.304 363.881 156.807 322.454 138.133C271.739 115.271 222.01 119.481 176.247 151.562C138.364 178.115 119.533 215.734 118.466 262.057ZM333.741 60.5058L333.596 59.6424C296.386 46.4398 258.386 43.4661 218.849 50.6814C219.788 51.5197 220.052 51.7963 220.367 52.01C237.647 63.7247 254.913 75.4603 272.267 87.066C273.231 87.7094 275.143 87.7638 276.237 87.2651C290.455 80.7812 304.612 74.1526 318.778 67.5492C323.772 65.2126 328.764 62.8466 333.741 60.5058ZM187.859 463.593C187.905 463.903 187.949 464.221 187.995 464.523C224.357 476.921 261.42 479.821 300.043 472.822C298.897 471.885 298.476 471.481 298 471.16C281.444 459.94 264.922 448.695 248.293 437.598C247.275 436.919 245.225 436.938 244.041 437.477C229.726 444.007 215.482 450.692 201.221 457.341C196.766 459.42 192.312 461.504 187.859 463.593ZM116.909 100.91C117.823 101.082 118.376 101.249 118.948 101.285C137.809 102.486 156.684 103.624 175.543 104.917C178.364 105.109 180.051 104.25 181.62 101.893C192.245 86.0182 203.015 70.2484 213.726 54.4242C214.243 53.6593 214.641 52.8148 215.192 51.8277C192.373 52.3831 129.59 83.7171 116.909 100.91ZM275.509 27.47C274.332 27.3569 273.368 27.1787 272.404 27.1829C263.407 27.2165 254.381 26.8686 245.418 27.4491C236.26 28.0421 227.167 29.6097 218.03 30.6282C215.404 30.9195 215.021 32.0448 215.653 34.4003C216.68 38.2186 217.54 42.0934 218.233 45.9851C218.678 48.4558 219.579 49.1118 222.215 48.6549C246.9 44.3798 271.672 43.9481 296.317 48.5774C308.139 50.7988 319.696 54.4221 331.4 57.2974C332.5 57.5677 334.544 57.4315 334.892 56.7986C337.524 51.9597 339.844 46.9491 342.423 41.6617C321.079 33.8492 299.557 29.0523 276.505 27.4952V44.889L275.503 44.8576L275.509 27.47ZM433.037 132.806C407.434 99.4848 375.449 75.6615 336.132 60.5477C336.528 61.7653 336.65 62.3269 336.889 62.8361C344.898 80.0498 352.908 97.2627 360.919 114.475C361.697 116.151 362.847 116.69 364.618 116.795C381.006 117.783 397.391 118.818 413.774 119.901C422.309 120.473 422.259 120.55 421.626 129.111C421.444 131.596 421.599 134.105 421.599 136.879L433.037 132.806ZM55.9109 191.431C46.4931 204.125 39.02 274.878 45.4327 287.351C49.2551 285.767 53.132 284.3 56.877 282.548C58.4822 281.797 60.2133 280.737 61.194 279.333C67.7681 269.924 74.1116 260.353 80.6437 250.912C81.9807 248.98 82.1631 247.423 81.1278 245.243C74.4595 231.202 67.9441 217.107 61.37 203.031C59.6285 199.294 57.8578 195.572 55.9109 191.431ZM403.195 422.005C421.486 411.302 460.056 355.007 462.621 335.593C461.615 336.012 460.725 336.33 459.872 336.729C444.005 344.12 428.227 351.708 412.227 358.791C407.891 360.711 406.602 363.245 406.431 367.677C405.976 379.335 405.035 390.97 404.312 402.618C403.922 408.898 403.578 415.183 403.195 422.005ZM474.642 239.243C470.14 240.696 465.804 242.014 461.542 243.537C460.626 243.864 459.817 244.83 459.237 245.69C452.434 255.656 445.705 265.674 438.896 275.636C437.792 277.25 437.547 278.57 438.452 280.49C446.363 297.209 454.14 313.989 461.967 330.745C462.386 331.655 462.908 332.521 463.522 333.679C473.433 312.553 480.107 255.401 474.642 239.243ZM113.635 103.414C92.1656 120.278 56.1435 174.76 56.3656 189.713C56.8433 189.586 57.3129 189.431 57.7718 189.248C74.3581 181.531 90.9487 173.819 107.543 166.112C109.341 165.273 109.897 164.138 110.01 162.235C110.848 148.016 111.821 133.807 112.734 119.592C113.053 114.399 113.311 109.2 113.635 103.414ZM400.582 424.961C399.312 424.679 398.934 424.542 398.551 424.517C379.99 423.325 361.431 422.105 342.861 421.049C341.686 420.982 339.971 421.887 339.286 422.891C328.741 438.214 318.33 453.622 307.891 469.02C307.489 469.615 307.242 470.313 306.657 471.502C341.945 463.626 372.772 448.217 400.582 424.961ZM181.054 461.96L181.683 461.285C181.535 460.729 181.354 460.183 181.14 459.649C173.627 443.512 166.138 427.346 158.491 411.264C158.002 410.242 156.303 409.278 155.102 409.192C137.633 407.953 120.153 406.866 102.675 405.755C101.837 405.7 100.999 405.755 100.16 405.755L99.8587 406.576C122.644 431.305 149.709 449.766 181.054 461.96ZM386.455 192.969C386.37 192.613 386.261 192.263 386.128 191.922C382.58 184.296 379.074 176.651 375.417 169.079C374.853 167.914 373.741 166.879 372.64 166.13C351.864 151.983 331.058 137.883 310.222 123.83C308.921 122.957 307.421 122.427 305.861 122.29C282.849 120.771 259.839 119.334 236.83 117.979C234.778 117.873 232.731 118.255 230.855 119.094C208.392 129.448 186.009 139.964 163.545 150.331C160.641 151.673 158.516 153.517 156.743 156.174C144.229 174.824 131.631 193.42 118.948 211.962C117.297 214.296 116.342 217.05 116.192 219.905C114.951 240.551 113.874 261.208 112.229 281.821C111.783 287.403 113.436 291.993 116.085 296.345C118.152 299.724 121.086 302.553 124.061 306.141C123.734 304.95 123.604 304.389 123.433 303.835C119.241 290.842 116.905 277.535 116.963 263.865C117.173 215.833 137.339 177.891 175.91 149.893C203.476 129.884 234.797 121.332 268.789 123.197C306.106 125.245 338.092 139.454 364.744 165.822C373.003 174.006 379.952 183.22 386.455 192.969ZM191.057 105.652C192.838 105.845 193.878 105.994 194.923 106.071C202.818 106.591 210.756 106.752 218.604 107.698C227.027 108.714 234.892 108.012 242.161 103.297C243.557 102.391 245.202 101.872 246.724 101.159C252.43 98.4935 258.132 95.8195 264.507 92.8374L220.092 62.7733L191.057 105.652ZM328.716 420.418C327.999 420.133 327.743 419.953 327.477 419.936C314.557 419.11 301.638 418.26 288.708 417.535C287.402 417.461 285.96 417.878 284.747 418.434C276.299 422.296 267.894 426.248 259.482 430.192C258.732 430.544 258.042 431.03 256.913 431.697L300.902 461.468C310.301 447.609 319.463 434.086 328.716 420.424V420.418ZM169.413 410.072C169.706 411.12 169.771 411.598 169.968 412.019C176.098 425.198 182.28 438.353 188.343 451.561C189.372 453.802 190.571 453.448 192.308 452.632C206.716 445.868 221.137 439.128 235.57 432.414C236.396 432.03 237.159 431.515 238.142 430.947C237.513 430.366 237.26 430.062 236.945 429.846C229.015 424.452 221.1 419.035 213.118 413.71C212.03 413.044 210.795 412.654 209.522 412.574C202.229 411.998 194.928 411.512 187.626 411.061C181.731 410.688 175.824 410.42 169.413 410.078V410.072ZM480.851 342.865L468.208 337.581C464.534 336.047 464.501 336.037 463.013 339.859C452.843 365.996 437.995 389.168 418.795 409.575C416.133 412.406 413.388 415.158 410.681 417.945C417.55 416.478 423.81 417.402 429.864 420.535C430.543 420.888 432.169 420.349 432.798 419.697C435.885 416.497 438.861 413.18 441.73 409.779C444.454 406.555 446.99 403.179 449.81 399.615L436.608 389.824L437.446 388.717L450.619 398.357C463.205 381.343 473.379 362.671 480.851 342.871V342.865ZM120.327 159.67C121.19 159.473 121.693 159.445 122.119 159.25C131.704 154.793 141.292 150.342 150.842 145.809C151.762 145.373 152.612 144.537 153.197 143.682C159.277 134.792 165.321 125.877 171.329 116.937C171.901 116.089 172.376 115.175 172.921 114.249C172.385 114.026 172.209 113.897 172.024 113.884C156.544 112.884 141.063 111.91 125.587 110.877C123.523 110.738 123.108 111.769 122.999 113.511C122.089 128.203 121.125 142.894 120.193 157.587C120.155 158.163 120.262 158.737 120.327 159.67ZM283.687 94.3966C284.282 95.0902 284.433 95.3627 284.661 95.5177C293.079 101.251 301.487 106.998 309.951 112.662C310.802 113.23 311.971 113.5 313.017 113.57C324.753 114.344 336.497 115.071 348.249 115.751C348.859 115.787 349.488 115.542 350.257 115.389C349.865 114.399 349.613 113.656 349.282 112.949C343.473 100.495 337.595 88.0719 331.889 75.5693C330.809 73.2075 329.793 72.7716 327.437 73.9032C317.546 78.6562 307.571 83.2331 297.627 87.877C293.081 89.9999 288.527 92.1291 283.687 94.3966ZM402.162 292.026C384.055 353.515 343.628 391.779 279.202 399.841C214.958 407.88 166.079 380.892 131.96 325.743C132.798 329.258 133.158 332.567 134.363 335.534C136.669 341.211 139.366 346.739 142.101 352.23C142.888 353.794 144.047 355.14 145.477 356.151C167.23 370.988 189.028 385.755 210.873 400.451C212.426 401.471 214.21 402.083 216.062 402.23C239.765 403.789 263.476 405.253 287.195 406.62C289.248 406.711 291.293 406.314 293.163 405.464C314.643 395.558 336.08 385.564 357.474 375.481C359.053 374.708 360.41 373.547 361.416 372.105C374.141 353.466 386.802 334.785 399.4 316.061C399.995 315.179 400.678 314.156 400.756 313.155C401.323 305.881 401.743 298.598 402.162 292.026ZM451.397 331.733L430.709 287.42C430.08 288.56 429.87 289.011 429.598 289.413C423.221 298.825 416.815 308.215 410.492 317.667C409.878 318.584 409.631 319.861 409.538 320.997C409.119 326.317 408.778 331.645 408.455 336.974C408.164 341.773 407.929 346.576 407.629 352.146L451.397 331.733ZM348 410.181C348.807 410.455 349.157 410.661 349.517 410.684C363.616 411.566 377.72 412.402 391.816 413.335C393.926 413.475 394.515 412.681 394.63 410.696C395.313 398.961 396.109 387.225 396.86 375.49C397.05 372.501 397.208 369.511 397.398 366.195C396.311 366.533 395.737 366.644 395.221 366.883C386.975 370.703 378.711 374.488 370.522 378.428C369.264 379.029 368.147 380.207 367.341 381.376C361.339 390.079 355.429 398.848 349.502 407.601C349.018 408.324 348.626 409.102 348 410.181ZM109.015 176.06C107.776 176.544 106.959 176.812 106.185 177.17C94.7117 182.51 83.2737 187.934 71.7477 193.158C69.1805 194.321 68.6776 195.388 69.9433 198.009C75.2348 208.959 80.2979 220.014 85.4511 231.033C86.5262 233.325 87.6537 235.593 89.1688 238.726C89.6089 237.755 89.7262 237.355 89.9484 237.028C95.2671 229.163 100.636 221.336 105.875 213.419C106.588 212.344 106.862 210.852 106.963 209.523C107.556 201.635 108.055 193.738 108.549 185.842C108.748 182.724 108.849 179.599 109.015 176.06ZM248.082 435.5C249.194 436.32 249.729 436.743 250.292 437.127C266.672 448.234 283.053 459.341 299.435 470.447C303.207 473.002 303.499 472.948 306.141 469.041C325.414 440.617 344.677 412.189 363.929 383.757C364.44 383 364.874 382.191 365.683 380.84C358.828 383.694 353.205 386.288 349.142 392.529C334.246 415.414 318.675 437.858 303.346 460.46C302.702 461.409 301.935 462.277 301.148 463.282C299.984 462.528 299.066 461.958 298.172 461.352C284.651 452.199 271.123 443.054 257.59 433.918C256.613 433.262 255.184 432.552 254.195 432.795C252.235 433.279 250.437 434.413 248.082 435.5ZM417.6 458.343C429.191 458.442 438.766 449.732 438.932 438.944C439.1 427.973 429.657 418.916 417.955 418.825C406.428 418.731 396.975 427.539 396.86 438.47C396.749 449.457 405.913 458.24 417.607 458.339L417.6 458.343ZM151.722 52.6953C154.628 57.6306 157.275 61.9162 159.696 66.317C160.85 68.4127 162.001 68.3435 163.956 67.4277C169.593 64.7893 175.193 61.9371 181.08 59.9924C191.952 56.4025 202.979 53.2528 214.032 50.2518C216.978 49.4534 217.651 48.4768 216.812 45.6414C215.788 42.1282 214.988 38.5535 214.417 34.9389C213.969 32.1559 212.843 31.4622 210.077 32.0805C195.565 35.3182 181.409 39.6667 167.695 45.4046C162.428 47.6176 157.296 50.1428 151.722 52.6953ZM440.587 85.9721C428.793 86.014 419.505 94.8786 419.612 105.992C419.717 116.757 429.382 125.597 440.923 125.481C452.518 125.366 461.779 116.47 461.693 105.508C461.609 94.5202 452.327 85.9301 440.587 85.9721ZM392.306 168.239C396.497 158.274 402.625 150.283 410.718 143.785C411.242 143.365 411.521 142.414 411.584 141.689C411.871 138.336 411.984 134.983 412.275 131.63C412.458 129.555 411.575 128.868 409.58 128.753C396.548 127.998 383.521 127.145 370.49 126.357C369.388 126.29 368.271 126.445 366.865 126.51C367.296 127.692 367.51 128.442 367.833 129.14C372.209 138.558 376.878 147.85 380.874 157.431C383.112 162.773 387.425 165.255 392.306 168.239ZM155.534 142.846L155.953 143.462C158.887 142.108 161.907 140.907 164.723 139.342C166.291 138.472 167.856 137.221 168.856 135.754C185.184 111.797 201.463 87.8044 217.695 63.7771C218.323 62.8382 219.088 61.9811 219.874 60.9752C221.32 61.9182 222.481 62.6517 223.621 63.425C236.657 72.2393 249.692 81.0557 262.726 89.8742C266.387 92.3491 268.198 92.1437 271.737 88.7802C271.314 88.386 270.87 88.0138 270.409 87.6653C253.455 76.1686 236.505 64.6642 219.56 53.1522C217.575 51.7942 216.762 52.4753 215.626 54.156C199.681 77.7739 183.698 101.369 167.676 124.941L155.534 142.846ZM59.4421 416.874C59.4169 427.981 68.7824 436.856 80.5117 436.835C92 436.814 101.489 427.858 101.506 417.023C101.523 406.264 92.1551 397.324 80.8197 397.291C68.8599 397.249 59.4735 405.855 59.4421 416.874ZM53.239 190.943C48.1319 189.199 43.031 187.38 37.8548 185.806C37.3204 185.643 35.8954 186.825 35.6188 187.634C29.2962 206.164 25.5869 225.223 24.2143 244.755C24.0739 246.777 24.9059 247.349 26.7794 247.309C30.7339 247.228 34.6988 247.129 38.6428 247.345C41.4656 247.498 42.3227 246.385 42.656 243.692C43.7562 234.773 44.7621 225.814 46.5287 217.015C48.2534 208.421 50.8667 200.004 53.239 190.943ZM235.742 107.955C235.791 108.165 235.839 108.375 235.885 108.571C240.52 108.571 245.816 110.053 249.687 108.333C275.899 96.6745 301.835 84.394 327.783 72.1492C330.671 70.787 331.595 71.531 332.771 74.1023C338.695 87.0639 344.787 99.9458 350.829 112.851C352.44 116.292 356.053 117.423 359.815 115.653C359.716 115.276 359.594 114.907 359.448 114.546C351.581 97.6888 343.67 80.8503 335.872 63.9615C334.797 61.6332 333.567 62.2074 331.891 62.987C301.585 77.134 271.273 91.2685 240.956 105.39C239.206 106.208 237.482 107.092 235.742 107.945V107.955ZM257.774 494.577C274.52 494.42 288.984 493.223 303.321 490.522C305.532 490.102 306.123 489.315 305.559 487.156C304.658 483.713 303.928 480.224 303.27 476.726C302.883 474.656 302.013 473.987 299.821 474.341C293.578 475.349 287.314 476.581 281.021 476.856C268.885 477.384 256.724 477.418 244.573 477.415C241.989 477.415 241.067 478.241 240.768 480.622C240.361 483.857 239.852 487.093 239.144 490.274C238.536 492.999 239.632 493.82 242.155 493.9C248.082 494.095 254.012 494.407 257.774 494.577ZM177.72 106.79C176.813 106.597 176.155 106.371 175.486 106.327C156.338 105.116 137.186 103.951 118.043 102.687C115.775 102.536 115.069 103.42 114.96 105.495C114.616 112.01 114.187 118.524 113.776 125.037C112.422 146.552 111.067 168.061 109.71 189.564C109.325 195.734 108.996 201.907 108.642 208.079L109.369 208.337C111.181 205.694 113.103 203.119 114.759 200.373C115.545 199.072 116.159 197.49 116.276 195.991C116.993 186.827 117.569 177.65 118.15 168.478C119.338 149.728 120.538 130.978 121.624 112.222C121.758 109.904 122.42 109.198 124.795 109.357C139.793 110.363 154.802 111.204 169.803 112.147C174.921 112.478 175.423 112.214 177.716 106.79H177.72ZM66.6511 194.091C68.3611 193.252 69.585 192.624 70.8319 192.052C82.7603 186.492 94.6741 180.901 106.642 175.427C108.642 174.513 109.576 173.312 109.4 171.139C109.298 169.882 109.381 168.61 109.381 167.071C108.436 167.398 107.688 167.587 107.001 167.91C91.3022 175.217 75.6246 182.569 59.901 189.82C57.8641 190.756 57.6125 191.706 58.5325 193.678C72.5985 223.692 86.6316 253.72 100.632 283.763C100.886 284.31 101.326 284.769 102.099 285.859C102.332 283.093 102.403 281.039 102.694 279C103.365 274.331 102.275 270.152 100.238 265.883C91.4363 247.502 82.8923 229 74.2666 210.529C71.7581 205.158 69.2916 199.782 66.6553 194.091H66.6511ZM341.74 419.098C343.077 419.345 343.718 419.532 344.368 419.571C362.435 420.724 380.503 421.833 398.563 423.04C400.9 423.195 401.688 422.411 401.818 420.106C402.422 409.54 403.176 398.984 403.853 388.422C405.026 370.072 406.189 351.723 407.34 333.373C407.571 329.706 407.722 326.039 407.908 322.367C405.469 325.003 403.564 327.753 401.761 330.565C401.368 331.248 401.143 332.016 401.108 332.803C400.318 343.544 399.498 354.282 398.823 365.028C397.857 380.429 397.021 395.834 396.084 411.239C395.848 415.101 395.682 415.066 391.788 414.802C377.574 413.867 363.358 412.985 349.14 412.155C348.092 412.094 346.625 412.381 345.975 413.085C344.481 414.733 343.36 416.732 341.74 419.098ZM407.499 359.328C408.484 358.949 409.22 358.712 409.918 358.387C426.234 350.784 442.522 343.11 458.891 335.618C461.468 334.436 461.615 333.338 460.5 330.949C446.045 300.143 431.637 269.319 417.278 238.476C416.882 237.638 416.186 236.921 415.628 236.146C414.593 242.471 413.717 248.173 416.655 254.248C428.716 279.186 440.187 304.395 451.99 329.45C453.126 331.862 452.713 332.791 450.372 333.851C437.149 339.901 423.994 346.1 410.819 352.255C407.072 354.018 406.82 354.539 407.499 359.328ZM481.212 341.412C481.721 340.279 482.123 339.593 482.347 338.856C484.674 331.207 487.398 323.645 489.165 315.866C491.325 306.352 492.708 296.658 494.311 287.024C494.443 286.23 493.76 284.574 493.32 284.524C487.872 283.895 482.387 283.51 477.045 283.057C475.648 291.24 474.684 298.999 472.932 306.576C470.958 315.127 468.281 323.513 465.897 331.965C465.528 333.277 464.725 334.595 466.714 335.398C471.458 337.328 476.176 339.321 481.212 341.412ZM178.035 479.622C178.6 480.041 178.808 480.287 179.068 480.381C197.17 486.999 215.84 491.15 234.988 493.229C236.595 493.405 237.343 492.793 237.58 491.196C238.129 487.481 238.674 483.759 239.431 480.09C239.93 477.671 239.033 477.137 236.757 476.801C228.06 475.521 219.327 474.308 210.758 472.401C202.868 470.642 195.171 468.014 187.383 465.785C186.126 465.422 184.726 464.527 183.869 466.474C181.964 470.797 180.034 475.119 178.035 479.622ZM152.059 398.177C151.722 397.041 151.627 396.465 151.389 395.956C146.175 384.767 141.04 373.532 135.625 362.444C134.728 360.604 132.605 359.362 130.989 357.786C128.265 362.782 126.071 367.321 123.399 371.554C119.398 377.895 114.092 383.114 107.826 387.194C105.043 389.004 105.102 391.496 105.567 393.9C105.718 394.673 108.183 395.352 109.635 395.461C120.369 396.27 131.115 396.928 141.86 397.624C145.083 397.829 148.31 397.976 152.059 398.177ZM60.7812 135.838C60.2028 136.278 59.9974 136.366 59.8968 136.521C50.6089 150.727 43.3873 165.957 37.4881 181.844C36.9076 183.405 37.5824 183.99 38.8984 184.434C43.0164 185.823 47.1741 187.118 51.2103 188.717C53.5491 189.644 54.4628 189.013 55.2822 186.752C59.9429 173.895 65.9951 161.698 73.049 149.99C73.9921 148.424 74.9121 146.846 75.9725 145.048L60.7812 135.838ZM99.0812 105.541C111.351 105.212 120.247 96.5676 120.019 85.2134C119.792 74.5131 109.96 65.7868 98.4337 66.0425C86.7316 66.3023 77.6176 75.4561 77.9613 86.6029C78.2799 97.1921 87.9261 105.839 99.0812 105.541ZM426.142 88.7467C378.877 45.3773 323.407 22.9036 259.308 22.8198C206.093 22.7527 158.124 39.1658 115.128 70.6613C116.988 72.6731 116.967 72.6396 118.944 71.3507C126.069 66.7068 133.031 61.7799 140.374 57.5069C176.853 36.2759 216.377 25.9905 258.472 25.387C277.458 25.1166 296.174 27.4679 314.662 31.7913C355.057 41.2671 392.268 61.149 422.598 89.4613C423.77 90.5699 424.791 91.2154 426.136 88.7467H426.142ZM125.363 452.838C126.735 453.789 127.668 454.514 128.659 455.112C134.143 458.452 139.46 462.124 145.177 465.001C154.695 469.792 164.457 474.096 174.168 478.497C174.912 478.834 176.664 478.631 176.892 478.162C179.082 473.694 181.044 469.115 183.15 464.393C179.156 462.748 175.549 461.602 172.265 459.85C160.601 453.626 149.058 447.173 137.425 440.89C136.614 440.452 134.877 440.241 134.519 440.681C131.43 444.52 128.559 448.529 125.363 452.838ZM159.759 409.969C160.071 410.807 160.318 411.646 160.683 412.417C168.087 428.288 175.499 444.153 182.917 460.013C184.554 463.511 184.577 463.534 188.157 461.868C217.915 447.992 247.673 434.108 277.431 420.217C279.149 419.414 280.845 418.561 282.551 417.734C277.716 416.925 273.303 416.227 268.61 418.467C243.347 430.528 217.921 442.248 192.539 454.093C188.796 455.837 188.798 455.818 187.004 451.97C181.149 439.419 175.291 426.869 169.43 414.32C167.158 409.445 165.532 408.678 159.759 409.969ZM401.198 453.328C399.24 451.178 399.236 451.172 397.27 452.536C350.106 485.293 297.788 499.631 240.646 495.143C189.491 491.117 144.171 472.22 104.959 438.979C102.619 436.995 100.391 434.878 97.9998 432.961C97.4927 432.556 96.5014 432.751 95.7344 432.673C95.8811 433.413 95.9062 434.21 96.2143 434.874C96.4469 435.373 97.0337 435.712 97.4717 436.112C115.023 452.075 134.489 465.227 155.94 475.324C197.993 495.122 242.133 502.331 288.362 496.951C322.986 492.917 355.213 481.791 385.055 463.8C390.458 460.525 395.657 456.928 401.198 453.328ZM493.062 225.211C492.373 225.609 492.015 225.758 491.73 225.988C487.184 229.608 482.586 233.164 478.162 236.926C477.301 237.659 476.62 239.254 476.723 240.371C477.944 253.27 478.037 266.252 477.001 279.167C476.836 281.183 477.662 281.756 479.483 281.86C483.427 282.085 487.392 282.259 491.296 282.82C494.02 283.212 494.907 282.439 495.135 279.706C496.497 263.343 496.121 246.881 494.014 230.597C493.802 228.882 493.423 227.187 493.062 225.211ZM216.963 403.772C222.347 407.809 226.863 412.513 234.418 412.759C252.101 413.331 269.755 414.844 287.421 415.965C300.651 416.803 313.881 417.641 327.115 418.423C328.204 418.486 329.74 418.377 330.352 417.7C331.968 415.908 333.188 413.76 334.931 411.222L216.963 403.772ZM207.474 410.856C207.558 410.613 207.644 410.372 207.728 410.129C205.094 408.309 202.564 406.302 199.787 404.732C197.797 403.609 195.519 402.563 193.291 402.362C183.743 401.505 174.168 400.931 164.597 400.333C145.845 399.16 127.085 398.06 108.338 396.88C103.947 396.603 103.966 396.513 103.899 392.301C103.899 391.672 103.677 391.043 103.553 390.415C97.0568 392.362 96.7006 392.791 96.4784 398.942C96.4784 399.237 96.4449 399.535 96.4428 399.831C96.4218 402.8 97.4613 403.967 100.425 404.171C117.691 405.35 134.952 406.564 152.223 407.664C165.547 408.515 178.879 409.213 192.21 409.969C197.299 410.265 202.387 410.562 207.474 410.86V410.856ZM27.6197 302.836C31.4589 299.177 34.5165 295.583 38.2363 292.907C42.0482 290.163 43.4649 287.51 42.9871 282.506C42.0126 272.308 42.1718 261.994 42.0545 251.725C42.0272 249.359 41.3169 248.582 39.0095 248.657C35.1598 248.789 31.2955 248.833 27.4479 248.657C24.7948 248.535 23.6757 249.388 23.8203 252.144C24.5559 265.556 25.128 278.968 25.9369 292.381C26.1528 295.769 27.0078 299.126 27.6197 302.836ZM349.825 458.825C352.12 463.18 354.35 467.222 356.382 471.361C357.235 473.101 358.103 473.375 359.834 472.564C372.744 466.541 385.098 459.393 396.753 451.201C398.159 450.212 398.417 449.376 397.591 447.8C394.844 442.513 394.691 437.011 396.646 431.414C396.774 431.045 396.755 430.626 396.856 429.83C382.268 441.582 366.773 451 349.829 458.825H349.825ZM356.29 474.182C353.775 469.462 351.594 465.148 349.165 460.979C348.823 460.397 347.128 460.095 346.315 460.384C341.285 462.172 336.411 464.431 331.325 466.026C323.403 468.509 315.354 470.588 307.361 472.839C305.959 473.235 304.098 473.356 304.519 475.479C305.435 480.11 306.54 484.7 307.631 489.602C324.554 486.387 340.403 481.077 356.294 474.186L356.29 474.182ZM145.921 358.276L145.187 358.886C147.683 363.496 148.813 368.637 153.863 372.005C181.492 390.427 208.918 409.152 236.415 427.776C240.497 430.54 242.147 430.391 246.791 426.556L145.921 358.276ZM108.273 105.292C101.005 107.962 93.8651 107.71 86.9097 103.869C86.281 103.523 84.5856 104.078 84.0533 104.739C76.9721 113.624 70.0021 122.598 63.034 131.573C62.4054 132.386 61.9862 133.363 61.347 134.478C66.2026 137.412 70.7187 140.247 75.3626 142.848C75.9515 143.177 77.5903 142.59 78.1038 141.932C81.0188 138.189 83.5273 134.117 86.566 130.488C93.6576 122.017 100.967 113.735 108.273 105.292ZM117.797 73.3521C122.355 84.1174 122.355 84.1174 119.308 95.2369L159.402 68.5614L150.204 53.0537L117.797 73.3521ZM229.397 118.111C229.33 117.872 229.265 117.633 229.2 117.394C225.752 117.203 222.307 116.902 218.86 116.87C217.391 116.857 215.936 117.161 214.595 117.761C184.109 131.919 153.643 146.117 123.198 160.355C119.531 162.069 118.634 164.756 120.394 168.932L229.397 118.111ZM363.365 371.862C369.79 369.901 375.264 367.526 379.164 361.593C394.907 337.619 411.204 314.008 427.297 290.262C430.382 285.708 430.262 284.055 426.224 279.098L363.365 371.862ZM156.162 154.556C150.437 156.962 144.653 158.408 140.808 164.257C124.826 188.566 108.325 212.52 92.0084 236.605C89.5313 240.262 90.0028 243.506 93.6471 246.874L156.162 154.556ZM314.901 115.185C314.754 115.549 314.608 115.911 314.463 116.273C318.219 118.186 321.867 121.489 325.75 121.791C354.042 123.989 382.377 125.613 410.706 127.323C413.107 127.468 414.048 128.145 413.805 130.632C413.461 134.136 413.386 137.667 413.206 141.295C418.784 139.593 419.662 138.527 419.935 133.541C420.079 130.875 420.264 128.21 420.448 125.548C420.704 121.858 420.673 121.835 416.886 121.592C387.281 119.689 357.68 117.785 328.081 115.881C323.69 115.6 319.294 115.412 314.901 115.185ZM304.371 120.674C304.429 120.422 304.49 120.171 304.549 119.919C300.175 117.377 296.652 113.72 290.793 113.479C275.685 112.851 260.616 111.497 245.512 110.546C228.343 109.464 211.165 108.5 193.989 107.503C189.521 107.245 188.004 108.419 186.75 113.312L304.371 120.674ZM372.181 163.997L372.867 163.368C370.522 159.85 370.31 155.195 366.349 152.521C339.211 134.186 312.083 115.832 284.965 97.4604C281.425 95.0672 279.175 95.3773 275.966 98.8519L372.181 163.997ZM462.791 100.08C464.421 108.356 462.066 115.269 456.395 121.152C458.769 124.714 460.892 128.162 463.321 131.387C464.314 132.703 465.823 133.92 467.355 134.488C474.097 136.984 480.348 140.291 485.887 144.879C489.582 147.938 493.182 151.113 495.472 153.077C487.524 135.163 476.446 116.851 462.791 100.069V100.08ZM82.1065 100.533C51.7196 133.973 31.9493 172.803 23.573 217.277C17.9148 247.316 18.1558 277.367 24.2583 307.679C26.773 305.933 26.289 303.925 25.9558 302.004C21.5549 276.54 20.9095 251.025 24.9079 225.45C30.606 189.034 43.9783 155.7 65.4398 125.718C70.7879 118.247 76.8632 111.298 82.6241 104.133C83.6782 102.838 84.9544 101.61 82.1065 100.533ZM124.059 452.121L133.758 439.027L102.533 412.446C103.635 418.547 102.552 424.142 98.8926 429.105C97.8154 430.572 98.4735 431.441 99.5381 432.351C103.291 435.576 106.969 438.891 110.821 441.991C115.046 445.392 119.428 448.592 124.063 452.123L124.059 452.121ZM294.67 406.436C294.718 406.855 294.768 407.274 294.816 407.693C298.572 407.417 302.795 408.171 306.009 406.706C335.545 393.261 364.907 379.434 394.318 365.711C397.88 364.047 398.299 363.111 397.34 358.462L294.67 406.436ZM388.448 193.487C388.727 188.529 389.001 184.22 389.179 179.907C389.211 179.026 389.039 178.149 388.678 177.344C381.331 161.483 373.959 145.629 366.561 129.784C364.641 125.668 361.844 124.609 357.13 126.33L388.448 193.487ZM402.434 310.424C405.278 306.685 409.157 303.743 409.471 298.714C410.729 278.667 412.006 258.618 413.302 238.569C413.585 234.138 412.378 232.416 407.476 230.846C405.791 257.451 404.111 283.98 402.434 310.432V310.424ZM110.274 291.446C111.816 266.954 113.309 243.246 114.799 219.536L113.96 219.354C111.888 222.468 109.769 225.555 107.78 228.719C107.338 229.423 107.2 230.396 107.151 231.259C105.963 249.198 104.814 267.136 103.706 285.075C103.65 286.014 103.998 287.336 104.653 287.887C106.133 289.141 107.923 290.006 110.274 291.446ZM29.9479 377.656C34.3341 388.177 53.2096 417.09 58.1951 420.512C57.3569 413.71 59.0774 407.838 63.6438 402.865C63.9749 402.507 64.2515 401.557 64.0504 401.331C62.137 399.177 60.4417 396.561 58.0485 395.164C54.1611 392.892 49.471 391.943 45.7093 389.518C40.0385 385.867 34.8706 381.422 29.9479 377.663V377.656ZM134.449 339.382L133.664 339.53C133.437 342.255 133.542 345.082 132.894 347.703C132.174 350.637 132.884 353.02 134.101 355.589C140.231 368.532 146.256 381.527 152.302 394.508C154.163 398.5 156.94 399.61 161.852 398.07C152.705 378.487 143.571 358.926 134.449 339.388V339.382ZM192.61 400.74C192.668 400.461 192.725 400.183 192.784 399.902L152.051 372.363C152.109 373.262 152.051 373.57 152.155 373.798C155.77 381.605 159.341 389.432 163.107 397.165C163.545 398.066 165.021 398.885 166.087 398.986C171.5 399.491 176.937 399.747 182.364 400.09L192.61 400.74ZM74.6061 396.039C106.617 395.83 132.167 370.336 132.027 338.722C131.884 306.449 106.345 281.091 74.1598 281.301C42.8781 281.489 17.3091 307.616 17.504 339.189C17.6968 370.322 43.7226 396.228 74.6061 396.046V396.039ZM327.328 123.585L327.02 124.253L366.152 150.725C366.152 149.774 366.242 149.468 366.14 149.233C362.659 141.71 359.188 134.182 355.613 126.703C355.301 126.049 354.308 125.368 353.587 125.314C344.838 124.666 336.082 124.138 327.328 123.585ZM432.387 267.421L447.405 245.247C437.18 244.677 428.11 242.594 419.604 238.269L419.063 238.883C423.382 248.127 427.699 257.375 432.387 267.417V267.421ZM170.543 135.886L170.985 136.446L212.948 116.902C212.506 116.562 212.37 116.371 212.223 116.361C203.731 115.783 195.248 115.183 186.744 114.71C185.921 114.664 184.713 115.166 184.259 115.818C179.617 122.459 175.094 129.184 170.543 135.886ZM308.273 407.436C309.036 407.84 309.281 408.064 309.541 408.092C317.818 408.615 326.096 409.158 334.382 409.558C335.189 409.598 336.352 409.005 336.82 408.337C341.388 401.792 345.845 395.168 350.332 388.569L349.934 387.99L308.273 407.436ZM414.537 252.762L413.805 252.926C412.872 267.847 411.94 282.768 411.01 297.689L411.753 297.898C416.215 291.293 420.698 284.696 425.097 278.053C425.459 277.504 425.53 276.443 425.254 275.84C421.731 268.128 418.12 260.451 414.534 252.762H414.537ZM99.1713 284.042C95.3719 275.902 91.5181 267.65 87.3435 258.71L73.6967 278.872L99.1713 284.042ZM140.68 162.17C140.451 161.911 140.221 161.655 139.99 161.401C133.494 164.446 126.972 167.428 120.553 170.621C119.78 171.009 119.296 172.537 119.181 173.589C118.814 177.219 118.663 180.873 118.449 184.52C118.252 187.9 118.085 191.282 117.902 194.665L118.566 194.845L140.68 162.17ZM291.357 112.157C291.422 111.839 291.489 111.528 291.556 111.199C288.622 109.196 285.728 107.161 282.773 105.202C279.732 103.181 276.758 99.9332 273.533 99.6378C270.448 99.3569 267.068 102.153 263.839 103.645C260.02 105.407 256.225 107.22 252.417 109.012C252.464 109.253 252.508 109.496 252.554 109.737L291.357 112.157ZM458.421 244.294C456.345 244.491 454.892 244.759 453.444 244.738C450.521 244.696 448.557 245.822 446.948 248.401C443.385 254.095 439.466 259.569 435.711 265.146C432.915 269.293 433.196 271.749 437.063 275.8L458.421 244.294ZM83.0915 249.759L61.8835 281.083C64.8069 280.664 66.9591 280.534 69.0087 280.014C70.2221 279.71 71.6743 279.077 72.3491 278.128C76.8673 271.747 81.2033 265.25 85.5098 258.735C85.9856 258.016 86.2998 256.815 86.0378 256.063C85.3714 254.143 84.3383 252.339 83.0977 249.757L83.0915 249.759ZM399.427 335.498L398.589 335.18L378.435 364.938L378.953 365.539C384.996 362.694 391.053 359.869 397.063 356.947C397.549 356.713 397.977 355.876 398.023 355.288C398.536 348.703 398.968 342.1 399.427 335.498ZM231.905 413.896L231.641 414.578C237.012 418.211 242.35 421.9 247.801 425.408C248.492 425.852 249.915 425.63 250.789 425.242C256.106 422.876 261.366 420.378 266.634 417.908C267.34 417.576 267.999 417.143 268.68 416.757L268.47 416.229L231.905 413.896ZM105.538 233.082L104.792 232.929C101.636 237.592 98.5405 242.299 95.288 246.892C94.1606 248.483 94.1166 249.826 94.9465 251.522C97.3355 256.411 99.5841 261.371 101.915 266.286C102.166 266.816 102.6 267.26 103.3 268.228C104.075 256.082 104.809 244.583 105.54 233.082H105.538ZM456.372 131.051C455.534 129.882 454.486 128.704 453.767 127.351C452.464 124.894 450.944 124.521 448.272 125.538C442.17 127.862 436.063 127.244 430.176 124.44C429.462 124.098 428.739 123.777 428.018 123.446C429.583 126.142 431.426 128.666 433.519 130.976C434.192 131.712 435.552 132.217 436.572 132.175C443.046 131.911 449.511 131.462 456.372 131.051ZM398.802 220.441C400.783 230.217 402.828 240.32 404.67 249.411C406.81 239.541 405.967 229.205 398.802 220.441ZM461.192 132.931L461.984 132.066C459.964 129.105 457.99 126.11 455.873 123.218C455.594 122.834 454.603 122.971 453.943 122.868C453.878 123.534 453.524 124.385 453.8 124.836C455.175 127.097 456.69 129.269 458.338 131.339C458.977 132.129 460.222 132.418 461.192 132.931ZM389.592 175.682C392.302 169.882 390.984 167.335 385.206 166.307C386.629 169.356 387.978 172.239 389.592 175.691V175.682ZM94.1418 400.126L94.9653 399.795V393.923L90.3927 395.566L94.1418 400.126ZM62.288 396.901L66.3577 400.287C66.6993 399.774 67.4369 399.128 67.3154 398.772C66.6364 396.813 65.0857 396.356 62.2796 396.918L62.288 396.901Z" fill="#A98346"/>
<path d="M412.019 231.429C411.056 230.451 410.094 229.473 409.131 228.495L401.637 220.712L401.696 220.783C401.109 219.764 400.549 218.729 399.929 217.732C388.154 198.772 387.332 179.363 399.001 160.311C415.127 133.983 449.753 125.689 476.586 141.05C477.512 141.58 478.543 141.93 479.52 142.362L479.444 142.309C480.792 143.447 482.093 144.644 483.493 145.717C505.48 162.572 511.124 193.439 496.006 216.611C492.443 222.059 487.38 226.544 483.013 231.473L483.086 231.416C482.15 231.942 481.177 232.414 480.28 233.003C472.646 238.001 464.402 241.28 455.277 242.364C440.295 244.141 426.584 240.943 414.161 232.324C413.538 231.896 412.738 231.72 412.019 231.429ZM445.968 241.467C446.341 241.428 446.717 241.428 447.089 241.467C449.948 241.934 451.002 239.855 452.362 237.978C453.722 236.1 452.507 234.851 451.645 233.466C448.292 228.086 444.864 222.761 441.622 217.329C440.467 215.387 439.331 215.068 437.305 215.98C431.079 218.777 424.79 221.443 418.494 224.084C416.608 224.872 415.393 225.785 415.33 228.137C415.267 230.488 415.98 231.98 418.029 233.21C426.527 238.319 435.721 240.995 445.962 241.467H445.968ZM492.171 156.958C489.69 160.743 487.439 164.337 485.01 167.807C483.918 169.366 483.929 170.708 484.516 172.47C487.944 182.772 491.146 193.15 494.644 203.429C495.26 205.242 496.905 206.702 498.324 208.668C506.327 193.116 503.64 170.483 492.165 156.958H492.171ZM426.043 173.943C427.525 173.943 429.01 173.889 430.49 173.956C432.166 174.031 433.044 173.359 433.244 171.636C434.472 161.034 435.777 150.438 436.972 139.832C437.25 137.349 435.714 136.06 433.311 136.781C430.012 137.781 426.814 139.086 423.545 140.222C421.514 140.924 420.737 142.211 420.636 144.413C420.305 151.717 419.67 159.008 419.259 166.309C418.786 174.719 417.987 173.579 426.043 173.943ZM449.305 154.642C451.756 159.303 453.936 163.61 456.317 167.801C456.681 168.442 458.165 169.058 458.831 168.826C463.39 167.206 467.892 165.432 472.336 163.503C472.939 163.241 473.606 161.652 473.346 161.105C470.99 156.137 468.436 151.256 465.875 146.243L449.305 154.642ZM439.072 135.74C442.108 141.501 444.828 146.731 447.664 151.903C447.938 152.402 449.108 152.951 449.516 152.742C454.627 150.292 459.674 147.712 464.976 145.038C463.702 142.852 462.748 141.025 461.604 139.323C460.803 138.129 459.911 136.389 458.773 136.129C452.513 134.673 446.165 134.434 439.072 135.74ZM471.992 211.306C473.438 219.071 474.765 226.186 476.183 233.814C481.364 230.788 485.651 227.516 489.109 223.264L488.69 222.556L476.452 224.058L476.313 223.023C477.2 222.814 478.08 222.577 478.975 222.432C482.583 221.854 486.219 221.41 489.795 220.672C490.652 220.494 491.991 219.331 491.947 218.698C491.796 216.455 491.236 214.219 490.616 212.042C490.463 211.503 489.497 210.831 488.912 210.839C483.422 210.908 477.912 211.118 471.992 211.302V211.306ZM447.752 170.737C440.237 170.925 432.782 174.612 428.382 183.015C424.572 190.293 425.238 197.658 429.989 204.347C437.975 215.605 455.273 217.281 465.481 207.945C470.699 203.173 473.354 197.28 472.478 190.18C471.07 178.763 461.69 170.919 447.752 170.737ZM411.201 148.636C410.112 149.315 409.663 149.506 409.328 149.818C403.728 154.988 399.292 161.289 396.314 168.304C395.218 170.85 396.691 172.063 398.594 172.39C401.683 172.923 404.871 172.965 408.025 173.002C408.603 173.002 409.659 172.045 409.701 171.466C410.267 164.108 410.703 156.738 411.201 148.636ZM407.161 212.384C407.647 204.877 408.134 198.209 408.435 191.532C408.467 190.79 407.597 189.78 406.87 189.271C403.001 186.546 399.057 183.914 395.113 181.295C394.6 180.953 393.931 180.844 393.298 180.614C392.831 183.101 402.739 205.879 407.161 212.384ZM468.962 139.059C468.769 139.51 468.677 139.623 468.702 139.675C472.107 146.247 475.502 152.825 478.97 159.364C479.209 159.814 480.171 160.322 480.569 160.177C484.147 158.869 487.672 157.421 491.699 155.82C485.163 148.033 477.889 142.479 468.962 139.059ZM419.236 143.284L418.511 142.919C416.311 144.621 412.92 145.147 412.66 148.816C412.14 156.107 411.795 163.41 411.248 170.699C411.053 173.298 412.65 173.262 414.404 173.375C416.158 173.488 417.537 173.317 417.57 171.009C417.608 168.444 417.864 165.883 418.019 163.318C418.425 156.646 418.831 149.968 419.236 143.284ZM405.673 222.82L406.973 222.554C406.654 219.792 406.954 216.766 405.904 214.316C402.163 205.598 397.968 197.073 393.925 188.485C393.632 187.856 393.183 187.303 392.345 185.989C392.278 200.614 396.649 212.589 405.673 222.82ZM409.976 192.098C409.257 203.291 408.299 214.333 408.538 225.467C411.704 220.133 415.615 215.284 415.244 208.676C415.07 205.644 415.554 202.576 415.732 199.525C415.994 194.933 415.223 193.871 409.976 192.098ZM454.822 169.44L441.02 142.634L440.182 142.94C441.609 151.283 443.013 159.63 444.516 167.958C444.619 168.524 445.463 169.345 445.998 169.373C448.724 169.517 451.467 169.44 454.822 169.44ZM422.669 198.19C424.723 196.538 423.882 195.595 422.617 194.627C417.658 190.863 412.713 187.082 407.781 183.283C403.452 179.93 399.162 176.544 394.908 173.21C392.666 177.51 392.772 177.973 396.861 180.725C398.091 181.55 399.32 182.38 400.549 183.212L422.669 198.19ZM434.537 173.327C437.303 172.172 439.702 171.307 441.94 170.135C442.492 169.846 442.839 168.52 442.735 167.742C442.127 163.234 441.377 158.746 440.639 154.257C440.021 150.518 439.348 146.788 438.698 143.053L438.099 143.091C436.921 153.05 435.752 163.002 434.537 173.333V173.327ZM458.915 170.548C461.417 172.177 463.542 173.273 465.29 174.786C466.967 176.253 468.067 175.928 469.563 174.601C474.222 170.469 478.994 166.455 483.702 162.392C484.451 161.749 485.182 161.084 485.92 160.43L485.5 159.879L458.915 170.548ZM424.897 198.211C420.705 206.403 416.648 214.314 412.595 222.225L413.293 222.759C418.666 217.889 424.054 213.048 429.354 208.113C429.717 207.775 429.721 206.625 429.44 206.092C428.118 203.59 426.63 201.172 424.897 198.209V198.211ZM459.135 239.705C461.885 239.476 469.743 229.174 471.606 223.887L463.207 218.166C461.78 225.72 460.47 232.642 459.135 239.707V239.705ZM474.494 189.499C474.125 192.506 474.136 195.002 473.446 197.293C472.698 199.789 473.627 200.61 475.789 201.275C480.123 202.605 484.392 204.148 488.694 205.587C490.385 206.153 492.091 206.677 493.789 207.22C493.856 207.054 493.921 206.889 493.986 206.721L474.494 189.499ZM431.462 175.695L403.049 174.377C410.175 177.707 417.388 180.377 424.635 182.929C425.276 183.154 426.521 182.885 426.91 182.391C428.461 180.402 429.773 178.231 431.462 175.697V175.695ZM480.029 175.808C478.549 177.986 477.604 179.329 476.705 180.706C473.048 186.318 473.05 186.326 478.172 190.842C480.994 193.328 483.823 195.806 486.657 198.278L487.429 197.727C485.056 190.692 482.68 183.654 480.029 175.81V175.808ZM402.28 176.372C402.178 176.582 402.071 176.791 401.974 177.001L424.257 194.015C424.714 191.01 425.171 188.709 425.347 186.387C425.393 185.758 424.733 184.681 424.15 184.459C416.881 181.695 409.573 179.05 402.274 176.374L402.28 176.372ZM466.707 209.274H492.536L492.592 208.435C486.335 206.34 480.09 204.204 473.803 202.199C473.159 201.989 471.971 202.297 471.554 202.798C469.8 204.896 468.247 207.17 466.7 209.269L466.707 209.274ZM462.669 212.189C460.464 213.027 458.953 213.706 457.373 214.163C452.739 215.502 453.081 214.978 454.049 219.744C455.197 225.392 456.357 231.038 457.528 236.681L458.157 236.66C459.609 228.744 461.067 220.823 462.662 212.185L462.669 212.189ZM454.921 236.016L455.77 235.731C454.497 229.486 453.255 223.233 451.907 217.007C451.78 216.418 450.969 215.628 450.392 215.54C447.699 215.175 444.977 215.028 441.695 214.756L454.921 236.016ZM438.491 213.547C436.171 211.87 434.413 210.46 432.502 209.309C431.961 208.982 430.708 209.114 430.222 209.538C424.773 214.297 419.421 219.155 414.039 223.985L414.345 224.423L438.491 213.547ZM472.778 184.092C477.56 176.701 482.162 169.586 486.762 162.472L486.284 162.082L468.57 177.336C470.039 179.708 471.279 181.697 472.769 184.092H472.778ZM491.907 203.121L493.202 202.419L483.317 172.313L481.818 172.459C481.686 173.62 481.165 174.905 481.487 175.924C483.924 183.636 486.474 191.311 489.139 198.948C489.675 200.474 490.966 201.738 491.899 203.121H491.907ZM463.067 136.601L462.277 137.36C462.798 138.298 463.324 139.233 463.84 140.178C467.375 146.7 470.871 153.247 474.484 159.726C474.955 160.565 476.024 161.082 476.814 161.749C476.86 160.722 477.294 159.494 476.885 158.699C473.532 152.203 470.106 145.721 466.495 139.357C465.818 138.171 464.234 137.506 463.067 136.601ZM471.845 222.29L472.549 221.799C471.921 218.951 471.422 216.068 470.611 213.274C470.389 212.507 469.253 211.482 468.547 211.491C467.111 211.51 465.127 211.723 464.412 212.656C463.697 213.589 463.574 216.189 464.307 216.881C466.533 218.983 469.293 220.523 471.845 222.29ZM464.142 238.441L464.634 239.07C467.507 237.86 470.401 236.697 473.226 235.398C473.74 235.163 474.358 234.35 474.316 233.851C474.096 231.286 473.675 228.738 473.325 226.186L472.499 226.11L464.142 238.441ZM416.55 209.957C417.241 209.473 417.459 209.399 417.539 209.253C418.603 207.263 419.656 205.268 420.697 203.265C422.675 199.466 422.04 198.249 417.369 197.236C417.094 201.344 416.833 205.416 416.539 209.957H416.55ZM493.481 217.405C495.759 215.571 495.736 213.698 494.902 211.807C494.679 211.304 493.734 211.12 493.122 210.789C492.886 211.336 492.397 211.914 492.462 212.426C492.642 213.953 493.062 215.456 493.481 217.405Z" fill="#A98346"/>
<path d="M260.209 128.145C288.53 128.404 314.126 135.423 337.197 150.459C370.008 171.835 390.902 201.683 397.453 240.488C403.97 279.088 394.519 314.058 369.975 344.551C347.25 372.78 317.42 389.033 281.748 394.694C277.543 395.354 273.305 395.778 269.053 395.964C229.235 397.76 194.003 385.944 164.861 358.613C133.062 328.784 118.636 291.599 123.225 248.089C127.366 208.827 146.625 177.751 178.435 154.606C202.975 136.745 230.761 128.446 260.209 128.145ZM261.305 136.456L260.521 136.481C260.027 137.86 259.509 139.233 259.044 140.62C250.39 166.417 241.733 192.213 233.073 218.006C230.895 224.45 232.528 223.427 225.319 223.444C196.221 223.507 167.125 223.444 138.027 223.444C137.033 223.444 136.042 223.549 134.366 223.654C135.56 224.586 136.074 225.03 136.629 225.416C161.147 242.504 185.677 259.573 210.22 276.623C212.282 278.05 212.774 279.274 211.948 281.692C202.837 308.377 193.793 335.087 184.818 361.822C184.468 362.869 184.175 363.917 183.854 364.965C185.776 364.502 187.113 363.708 188.389 362.825C211.663 346.713 234.922 330.582 258.164 314.435C260.19 313.022 261.559 312.993 263.612 314.435C287.318 330.955 311.069 347.412 334.864 363.804C335.703 364.376 336.602 364.835 338.085 365.705C337.666 364.181 337.499 363.437 337.247 362.716C328.236 335.997 319.271 309.261 310.125 282.587C309.077 279.511 309.582 277.954 312.254 276.11C336.284 259.533 360.25 242.868 384.152 226.114C385.066 225.485 385.937 224.783 387.482 223.628C385.608 223.53 384.644 223.436 383.678 223.436C353.886 223.436 324.097 223.398 294.305 223.509C291.47 223.509 290.168 222.723 289.261 219.971C281.203 195.543 272.995 171.164 264.822 146.775C263.682 143.323 262.483 139.893 261.305 136.456ZM260.41 130.9L261.393 130.886C268.338 151.555 275.281 172.222 282.41 193.445L338.802 153.093C309.205 133.979 277.645 126.791 243.559 130.737C221.846 133.252 201.877 140.637 183.133 153.091L239.443 193.327C246.581 172.071 253.497 151.486 260.41 130.9ZM130.363 221.48C131.972 221.598 132.84 221.715 133.706 221.715C155.975 221.728 178.245 221.731 200.515 221.726C203.572 221.726 203.715 221.468 202.709 218.389C196.075 198.077 189.443 177.758 182.811 157.433C182.49 156.453 182.023 155.518 181.432 154.101C157.189 171.292 140.127 193.206 130.363 221.48ZM390.678 221.367C390.77 206.048 356.045 160.086 340.118 154.805C332.915 176.828 325.715 198.852 318.353 221.367H390.678ZM180.306 369.55L202.378 304.189H130.816C140.422 331.37 156.938 352.511 180.306 369.55ZM319.457 304.166C326.855 326.095 334.093 347.546 341.495 369.483C364.809 352.508 381.333 331.315 390.906 304.166H319.457ZM181.145 370.106C205.165 386.253 230.933 394.338 259.891 394.729C252.807 372.935 245.952 351.827 238.905 330.133L181.145 370.106ZM131.109 302.804L186.878 262.668L130.204 223.195C121.63 241.487 122.156 290.371 131.109 302.804ZM262.114 394.803C291.12 394.149 316.81 386.146 340.611 370.049L283.081 330.24C276.027 351.976 269.202 372.989 262.125 394.805L262.114 394.803ZM391.834 223.046L335.022 262.653C353.993 276.29 372.385 289.509 391.294 303.099C399.89 276.032 400.089 249.952 391.83 223.048L391.834 223.046ZM187.597 158.471L187.05 158.9C201.349 179.153 215.647 199.405 230.42 220.324C233.284 211.765 235.91 204.114 238.318 196.395C238.528 195.708 237.555 194.3 236.765 193.703C232.251 190.329 227.624 187.108 223.041 183.828C211.226 175.38 199.411 166.927 187.597 158.471ZM336.564 159.562L335.952 159.353L291.809 221.315C293.178 221.524 293.905 221.715 294.647 221.717C300.881 221.74 307.118 221.64 313.35 221.77C315.677 221.818 316.618 220.839 317.288 218.741C321.419 205.832 325.671 192.965 329.881 180.077C332.113 173.241 334.341 166.403 336.564 159.562ZM291.168 219.695C305.838 199.105 319.964 179.295 334.259 159.242C333.661 159.242 333.538 159.204 333.475 159.242C317.129 170.881 300.794 182.537 284.47 194.21C283.898 194.618 283.316 195.781 283.496 196.351C285.877 203.869 288.393 211.337 291.168 219.695ZM209.438 278.738C208.122 277.665 207.483 277.076 206.779 276.581C201.439 272.836 196.03 269.186 190.766 265.336C188.995 264.041 187.782 264.204 186.084 265.437C171.364 276.112 156.61 286.741 141.82 297.324C140.772 298.076 139.762 298.885 138.735 299.667L139.079 300.17L209.438 278.738ZM383.332 300.207C383.169 299.684 383.171 299.552 383.108 299.508C367.072 287.925 351.045 276.323 334.929 264.858C334.183 264.328 332.297 264.625 331.392 265.223C326.44 268.488 321.624 271.964 316.768 275.374C315.511 276.263 314.254 277.178 312.288 278.599L383.332 300.207ZM229.621 221.692L186.302 160.342C188.373 168.746 191.042 176.797 193.677 184.861C197.361 196.131 200.982 207.423 204.742 218.666C205.125 219.808 206.261 221.533 207.093 221.56C214.371 221.788 221.658 221.692 229.621 221.692ZM261.984 315.671V388.055L262.288 388.143C262.802 386.571 263.314 384.998 263.824 383.423C269.368 366.393 274.919 349.364 280.478 332.336C281.159 330.261 281.396 328.712 279.097 327.369C276.201 325.676 273.546 323.576 270.773 321.667C268.001 319.758 265.268 317.907 261.984 315.671ZM260.023 315.786C258.608 316.625 257.761 317.082 256.978 317.62C252.334 320.806 247.774 324.117 243.037 327.164C240.971 328.492 240.669 329.79 241.415 332.047C246.78 348.277 252.015 364.55 257.3 380.808C258.044 383.101 258.828 385.379 259.593 387.665L260.023 387.531V315.786ZM311.536 279.884C311.907 281.489 312.03 282.342 312.301 283.147C314.065 288.399 315.987 293.602 317.592 298.902C318.332 301.35 319.608 302.045 322.07 302.026C341.669 301.941 361.269 301.987 380.87 301.982C381.262 301.953 381.651 301.893 382.033 301.802V301.327L311.536 279.884ZM140.284 301.295C140.305 301.471 140.328 301.647 140.351 301.823C140.625 301.901 140.905 301.952 141.189 301.976C160.982 301.976 180.774 301.987 200.567 302.008C202.47 302.008 203.426 301.276 203.991 299.493C205.333 295.249 206.841 291.058 208.256 286.837C208.929 284.83 209.541 282.801 210.448 279.938L140.284 301.295Z" fill="#A98346"/>
<path d="M435.487 434.788L414.602 455.665L414.455 455.588L423.125 446.618C419.981 443.46 416.978 440.356 413.818 437.425C413.478 437.11 411.986 437.557 411.402 438.072C409.306 439.933 407.353 441.976 405.347 443.95L404.521 443.185L412.229 434.868L405.821 429.287C403.775 427.506 404.431 426.368 406.512 425.595C407.717 427.013 408.732 428.447 409.989 429.618C411.295 430.834 413.761 432.971 414.122 432.674C416.217 431.02 418.437 429.023 419.459 426.647C420.482 424.27 421.67 424.453 423.885 425.251C422.024 427.189 420.195 429.155 418.298 431.058C414.861 434.51 414.834 434.503 418.179 437.86C420.203 439.893 422.263 441.89 424.321 443.888C424.531 444.082 424.835 444.16 425.338 444.414C427.643 441.639 431.279 440.025 432.253 435.93C432.433 435.165 434.307 434.803 435.397 434.254C435.432 434.421 435.457 434.6 435.487 434.788Z" fill="#A98346"/>
<path d="M436.351 89.4697C438.764 88.9689 439.738 89.7422 440.052 91.8797C440.826 97.144 439.941 102.123 437.85 106.947C437.419 107.854 437.095 108.807 436.886 109.789C444.294 104.684 451.694 104.86 459.19 109.307C453.664 108.358 447.924 106.432 442.739 109.601C437.919 112.549 433.581 116.307 428.809 119.869C428.497 119.45 428.013 118.779 427.386 117.922C432.238 115.705 434.044 111.499 436.175 106.459C433.202 106.323 430.714 106.201 428.229 106.097C425.324 105.973 425.01 105.468 425.94 102.62C428.564 103.353 431.179 104.028 433.774 104.822C436.368 105.617 437.63 104.454 437.638 102.025C437.651 98.8813 437.391 95.7378 437.142 92.609C437.058 91.5738 436.639 90.57 436.351 89.4697Z" fill="#A98346"/>
<path d="M439.884 119.013C441.72 116.444 443.507 114.612 446.301 114.266C446.942 114.184 447.698 115.002 448.396 115.406C447.851 115.966 447.405 116.8 446.743 117.037C444.756 117.749 442.679 118.231 439.884 119.013Z" fill="#A98346"/>
<path d="M84.4683 411.43C86.4067 409.605 88.3599 407.794 90.2753 405.946C91.562 404.705 92.4737 404.818 92.8194 405.858L86.2412 416.6L86.8049 417.78C88.9865 417.78 91.1702 417.801 93.3517 417.78C95.7429 417.751 96.2437 418.928 95.5458 420.993C93.4942 420.456 91.5641 419.834 89.5732 419.452C85.9939 418.763 85.382 419.184 85.1577 422.908C85.0027 425.557 85.2373 428.231 85.3212 430.893C85.3526 431.842 85.4553 432.791 85.5307 433.713C83.259 434.487 82.5969 433.535 82.4104 431.708C81.7817 425.5 83.3388 419.75 85.6586 413.895C83.2039 416.317 80.752 418.741 78.3029 421.165C77.1084 422.349 76.0606 423.738 74.6963 424.668C73.6715 425.368 72.2129 425.825 71.0142 425.716C70.484 425.664 70.0964 423.937 69.6877 422.952C69.5075 422.518 69.4362 422.043 69.0107 420.427C72.85 424.937 74.5307 421.64 76.4796 419.695C79.204 416.971 81.8487 414.167 84.5269 411.399L84.4683 411.43Z" fill="#A98346"/>
<path d="M84.5195 411.377C82.8116 411.834 81.0554 412.157 79.4062 412.771C73.377 415.019 67.2263 415.772 62.8213 414.395C68.8987 413.4 75.1206 412.905 80.8878 409.212L75.1415 402.982L75.5481 402.452C76.0616 402.703 76.6399 402.871 77.0737 403.223C79.2071 404.939 81.3949 406.605 83.3607 408.506C84.0396 409.162 84.1193 410.438 84.4735 411.44L84.5195 411.377Z" fill="#A98346"/>
<path d="M100.148 78.6079L106.875 86.6007C106.33 87.2294 105.154 88.3548 104.328 89.7002C104.171 89.9579 105.389 91.0602 106.449 92.3574L109.802 87.7722L110.666 88.5413C107.522 91.7497 106.565 96.7017 102.308 99.03L101.359 98.33C102.074 97.3954 102.709 96.3811 103.522 95.5407C104.81 94.2142 104.282 93.005 103.042 92.4308C102.354 92.1123 100.636 92.5691 100.317 93.1768C98.7876 96.0123 97.5386 95.4255 96.1261 93.1768C95.8861 92.8621 95.6174 92.5702 95.3235 92.3051C92.4105 89.2119 92.4168 89.2182 95.3235 86.6342C95.6043 86.3849 95.7573 85.9909 95.9522 85.6912C92.8548 81.0221 91.9705 80.9278 89.3488 85.1778L91.8531 86.2968C88.8647 88.1222 85.585 87.4914 84.3633 84.9619C91.2894 84 92.1968 77.2416 96.4153 72.9895L98.2197 73.5616C98.1673 74.0709 98.2427 74.4355 98.0939 74.6094C97.2201 75.6782 96.1953 76.638 95.422 77.7718C94.9337 78.4864 94.2945 79.8318 94.5942 80.2174C95.5246 81.4182 96.8302 82.3591 98.117 83.2058C98.2574 83.298 99.3744 82.2082 99.7663 81.5167C100.051 81.0074 99.9507 80.2446 100.148 78.6079ZM101.057 90.1696C99.5903 88.996 98.5592 88.0341 97.3647 87.3321C97.1907 87.2294 96.2875 88.3652 95.7217 88.929C96.7255 89.9097 97.6602 90.989 98.796 91.7811C99.0077 91.9404 100.026 90.924 101.057 90.1696ZM101.745 82.8809C98.8924 85.1002 99.0621 85.6996 103.033 88.2416L105.07 86.4435L101.745 82.8809Z" fill="#A98346"/>
<path d="M114.762 89.9895C108.664 82.8434 100.302 77.7719 99.8414 67.4551C103.088 76.919 111.403 82.265 117.235 88.9941C112.279 94.2814 107.564 99.3948 102.692 104.353C102.287 104.772 100.493 104.466 99.8812 103.909C96.3082 100.646 93.0117 97.0707 89.3716 93.8895C87.7475 92.4708 85.5407 91.7185 83.598 90.6643L83.0531 91.2532C83.3172 92.2193 83.5792 93.1875 84.0821 95.0442L79.2119 89.4531C80.2409 87.9316 82.2003 87.9379 83.6694 88.6986C87.4185 90.6013 91.0285 92.7666 94.4724 95.1784C96.7 96.7627 98.3682 99.114 100.462 100.918C101.036 101.413 102.643 101.62 103.092 101.21C107.021 97.6135 110.795 93.8476 114.762 89.9895Z" fill="#A98346"/>
<path d="M131.131 338.415C131.759 368.695 106.672 394.32 75.7113 395.025C44.7984 395.727 19.2022 370.824 18.4708 339.331C17.7604 308.818 42.7908 283.004 73.7791 282.294C105.054 281.575 130.466 306.442 131.131 338.415ZM62.3411 382.696C66.8321 387.455 71.914 391.343 78.4776 392.644C80.6382 393.063 82.9538 392.711 85.3177 392.711L62.6177 355.767C61.7229 356.255 60.7421 356.951 59.6524 357.357C56.4293 358.552 55.7021 360.92 55.7964 364.12C55.9536 369.502 57.6824 374.389 59.9248 379.148C59.0362 377.995 57.8606 376.966 57.3052 375.673C52.3993 364.254 53.5079 353.294 61.0648 343.501C68.8187 333.452 79.4499 329.55 91.8834 332.115C110.906 336.043 121.449 357.14 113.659 374.992C113.353 375.692 113.127 376.428 112.863 377.147L113.774 377.507C115.673 373.632 117.999 369.902 119.389 365.853C123.467 353.95 121.275 342.757 115.17 331.952C105.912 315.549 85.848 307.957 68.3787 315.007C53.7448 320.912 45.2741 332.235 43.1596 347.68C41.064 363.016 46.3031 375.95 58.5018 385.741C62.6051 389.035 67.1464 391.621 71.5996 392.489L62.3411 382.696ZM98.5328 344.719C98.9415 335.46 98.7005 335.135 92.4199 333.522C81.1537 330.627 68.7391 335.093 61.9806 344.628C61.3813 345.467 61.1298 347.116 61.5259 348.042C67.9323 363.024 76.3233 376.862 85.9129 390.01C87.5475 392.252 89.3812 391.797 91.3951 391.034C93.409 390.272 95.6849 390.196 95.8589 386.91C96.6594 371.897 97.7365 356.905 98.5328 344.719ZM100.394 315.48C100.849 307.15 101.318 299.497 101.603 291.837C101.628 291.16 100.599 290.179 99.83 289.779C91.3196 285.362 82.2477 283.283 72.6706 283.876C71.3503 283.957 69.7367 284.999 68.8984 286.091C66.3836 289.383 64.288 292.992 61.8172 296.326C60.5158 298.088 60.9286 299.05 62.5653 300.123C67.5131 303.392 72.3918 306.762 77.3312 310.042C78.0437 310.513 78.9554 310.983 79.7622 310.964C86.7009 310.792 93.3021 312.192 100.394 315.48ZM24.5168 317.748C18.3535 332.382 18.4394 346.986 24.8961 361.337C31.0678 375.076 41.416 384.571 55.7377 389.733C41.2819 367.463 31.7719 343.136 24.5168 317.748ZM41.1918 347.952C42.6063 339.943 45.754 332.813 50.4986 326.321C51.0455 325.573 50.8695 324.064 50.6159 323.006C49.4654 318.209 48.1536 313.449 46.9339 308.667C46.4058 306.599 45.9531 304.512 45.3915 302.106C40.6805 303.281 36.2461 304.201 31.9353 305.541C29.9906 306.142 28.6473 307.823 29.1335 310.151C31.8537 323.108 35.7368 335.714 41.1918 347.952ZM100.364 338C99.2915 354.943 98.2437 371.499 97.1959 388.205C102.917 386.979 104.346 385.389 104.661 380.451C105.365 369.301 106.113 358.154 106.809 347.005C107.142 341.577 106.356 340.446 100.364 338ZM75.9209 311.314C75.6359 310.895 75.5625 310.685 75.4158 310.593C72.0774 308.303 68.7433 306.006 65.384 303.745C58.3112 298.979 58.3175 298.996 63.0578 291.984C64.6212 289.679 66.1069 287.315 67.6305 284.978L66.9704 283.997C64.0365 284.905 60.1973 284.959 58.3468 286.902C54.6019 290.835 51.9362 295.794 48.6397 300.601C54.9476 304.859 60.8846 308.915 66.8949 312.863C67.5236 313.282 68.6176 313.259 69.4097 313.072C71.5284 312.611 73.5989 311.962 75.9209 311.314ZM128.71 343.893C132.734 333.75 120.453 302.058 111.482 298.759C111.017 302.19 110.373 305.465 112.259 308.789C113.961 311.773 115.218 315.03 116.685 318.158C120.598 326.558 124.527 334.951 128.71 343.893ZM108.382 344.748C107.557 357.869 106.769 370.392 105.956 383.308C114.927 377.494 118.722 356.347 108.385 344.748H108.382ZM65.7612 313.931L47.8392 301.796L46.9444 302.456C48.6858 309.485 50.4294 316.515 52.1939 323.639L65.7612 313.931ZM108.338 320.353C108.445 319.215 108.567 318.167 108.636 317.117C109.001 311.603 109.091 306.056 109.803 300.586C110.269 297.024 108.875 295.035 106.069 293.407C103.715 292.04 103.223 292.221 103.043 294.947C102.689 300.266 102.424 305.591 102.022 310.903C101.597 316.666 102.263 317.779 108.347 320.353H108.338ZM111.373 310.218L110.57 310.373C110.377 313.579 109.983 316.79 110.076 319.988C110.12 321.503 110.88 323.121 111.687 324.468C113.963 328.27 116.939 331.736 118.676 335.751C120.298 339.494 123.19 341.146 126.941 343.505L111.373 310.218ZM41.196 358.9C41.8456 350.293 36.7616 343.31 34.5885 335.485C32.3838 327.551 29.9361 319.682 27.5953 311.786L26.713 311.698C26.5034 313.104 25.9439 314.564 26.1577 315.901C26.5768 318.523 27.4045 321.082 28.094 323.655C31.3642 335.784 35.7532 347.583 41.2044 358.9H41.196ZM43.7925 292.933L32.8952 302.783C33.0502 303.061 33.2075 303.338 33.3646 303.621C36.9272 302.684 40.5044 301.791 44.0377 300.754C44.4778 300.626 45.0184 299.706 44.9639 299.216C44.7711 297.414 44.3332 295.636 43.8009 292.933H43.7925ZM121.715 342.579C121.086 348.969 122.39 351.504 127.216 353.292C130.123 347.803 128.339 344.329 121.715 342.579ZM47.0659 300.352L55.8215 287.373C45.6429 290.322 44.5637 291.889 47.0638 300.347L47.0659 300.352ZM123.092 353.267C121.786 359.2 120.514 364.973 119.242 370.744C121.739 366.894 123.95 362.865 125.858 358.69C127.417 355.276 127 354.717 123.092 353.267ZM56.2554 356.848C63.0788 354.665 63.4162 353.969 59.3296 348.405C58.2651 351.328 57.3367 353.883 56.2554 356.85V356.848ZM56.8233 386.512C57.7495 389.201 58.5228 392.204 63.1102 391.598L56.8233 386.512Z" fill="#A98346"/>
<path d="M449.437 212.631C437.88 212.501 428.569 203.544 428.605 192.594C428.642 181.393 438.286 172.403 450.066 172.587C461.577 172.767 470.87 181.841 470.74 192.774C470.608 203.904 461.104 212.763 449.437 212.631ZM449.414 211.143C460.232 211.331 469.153 203.179 469.323 192.955C469.493 182.73 460.833 174.173 450.104 173.999C439.127 173.823 430.231 182.011 430.097 192.412C429.965 202.752 438.421 210.95 449.414 211.143Z" fill="#A98346"/>
</svg>
